<svg width="1200" height="410" viewBox="0 0 1200 410" xmlns="http://www.w3.org/2000/svg" role="img" aria-labelledby="title desc">
<title id="title">Public repository languages</title><desc id="desc">Primary language by repository count—not proficiency or private-work usage</desc>
<rect width="1200" height="410" rx="20" fill="#071D33"/>
<text x="52" y="52" fill="#F2E6CF" font-family="Georgia,serif" font-size="27">Public repository languages</text>
<text x="52" y="78" fill="#A9B8C4" font-family="Arial,sans-serif" font-size="14">Primary language by repository count—not proficiency or private-work usage</text><circle cx="62" cy="116" r="6" fill="#3572A5"/><text x="80" y="121" fill="#F2E6CF" font-family="Arial,sans-serif" font-size="14">Python</text><rect x="260" y="106" width="700" height="20" rx="5" fill="#0B2940"/><rect x="260" y="106" width="650" height="20" rx="5" fill="#3572A5"/><text x="985" y="121" fill="#F2E6CF" font-family="Arial,sans-serif" font-size="13">6 repos</text><circle cx="62" cy="150" r="6" fill="#b07219"/><text x="80" y="155" fill="#F2E6CF" font-family="Arial,sans-serif" font-size="14">Java</text><rect x="260" y="140" width="700" height="20" rx="5" fill="#0B2940"/><rect x="260" y="140" width="433" height="20" rx="5" fill="#b07219"/><text x="985" y="155" fill="#F2E6CF" font-family="Arial,sans-serif" font-size="13">4 repos</text><circle cx="62" cy="184" r="6" fill="#663399"/><text x="80" y="189" fill="#F2E6CF" font-family="Arial,sans-serif" font-size="14">CSS</text><rect x="260" y="174" width="700" height="20" rx="5" fill="#0B2940"/><rect x="260" y="174" width="108" height="20" rx="5" fill="#663399"/><text x="985" y="189" fill="#F2E6CF" font-family="Arial,sans-serif" font-size="13">1 repos</text><circle cx="62" cy="218" r="6" fill="#e34c26"/><text x="80" y="223" fill="#F2E6CF" font-family="Arial,sans-serif" font-size="14">HTML</text><rect x="260" y="208" width="700" height="20" rx="5" fill="#0B2940"/><rect x="260" y="208" width="108" height="20" rx="5" fill="#e34c26"/><text x="985" y="223" fill="#F2E6CF" font-family="Arial,sans-serif" font-size="13">1 repos</text><circle cx="62" cy="252" r="6" fill="#DA5B0B"/><text x="80" y="257" fill="#F2E6CF" font-family="Arial,sans-serif" font-size="14">Jupyter Notebook</text><rect x="260" y="242" width="700" height="20" rx="5" fill="#0B2940"/><rect x="260" y="242" width="108" height="20" rx="5" fill="#DA5B0B"/><text x="985" y="257" fill="#F2E6CF" font-family="Arial,sans-serif" font-size="13">1 repos</text><circle cx="62" cy="286" r="6" fill="#3178c6"/><text x="80" y="291" fill="#F2E6CF" font-family="Arial,sans-serif" font-size="14">TypeScript</text><rect x="260" y="276" width="700" height="20" rx="5" fill="#0B2940"/><rect x="260" y="276" width="108" height="20" rx="5" fill="#3178c6"/><text x="985" y="291" fill="#F2E6CF" font-family="Arial,sans-serif" font-size="13">1 repos</text><circle cx="62" cy="320" r="6" fill="#336790"/><text x="80" y="325" fill="#F2E6CF" font-family="Arial,sans-serif" font-size="14">PLpgSQL</text><rect x="260" y="310" width="700" height="20" rx="5" fill="#0B2940"/><rect x="260" y="310" width="108" height="20" rx="5" fill="#336790"/><text x="985" y="325" fill="#F2E6CF" font-family="Arial,sans-serif" font-size="13">1 repos</text></svg>
